# xmcd
#
# Track frame offsets:
#	150
#	18262
#	31170
#	54867
#	78855
#	103177
#	120287
#	144197
#	162060
#	180767
#	201990
#	226120
#
# Disc length: 3212
#
# Revision: 1
# Processed by: cddbd v1.5.1PL0 Copyright (c) Steve Scherf et al.
# Submitted via: dBpowerAMP V4.0
# Normalized: r0:DSETVAR1,TDELIM( - )
#
DISCID=7b0c8a0c
DTITLE=Various Artist - The Blues is Alright
DYEAR=2001
DGENRE=Blues
TTITLE0=Willie Clayton - Three People Sleeping in My Bed
TTITLE1=Z.Z. Hill - Three Into Two Won't Do
TTITLE2=Bobby Blue Bland - You've Got to Hurt Before You Heal
TTITLE3=Tyrone Davis - It's a Miracle
TTITLE4=J. Blackfoot - Just One Lifetime
TTITLE5=Mel Waiters - Got My Whiskey
TTITLE6=Johnny Taylor - Last Two Dollars
TTITLE7=Latimore - I Need a Good Woman Bad
TTITLE8=Denise Lasalle - Drop That Zero
TTITLE9=Little Milton - Room 244
TTITLE10=Shirley Brown - Sowed to the Wind
TTITLE11=Luther Ingram - I'll Be Your Shelter
EXTD=
EXTT0=
EXTT1=
EXTT2=
EXTT3=
EXTT4=
EXTT5=
EXTT6=
EXTT7=
EXTT8=
EXTT9=
EXTT10=
EXTT11=
PLAYORDER=
